<mxfile host="app.diagrams.net" agent="Mozilla/5.0 (X11; Linux x86_64; rv:133.0) Gecko/20100101 Firefox/133.0" version="25.0.3">
  <diagram name="Page-1" id="58cdce13-f638-feb5-8d6f-7d28b1aa9fa0">
    <mxGraphModel dx="712" dy="427" grid="1" gridSize="10" guides="1" tooltips="1" connect="1" arrows="1" fold="1" page="1" pageScale="1" pageWidth="1100" pageHeight="850" background="none" math="0" shadow="0">
      <root>
        <mxCell id="0" />
        <mxCell id="1" parent="0" />
        <mxCell id="X9fPhNkL44MhaLlxR3ed-43" value="0,1" style="edgeStyle=orthogonalEdgeStyle;rounded=0;orthogonalLoop=1;jettySize=auto;html=1;" edge="1" parent="1" source="X9fPhNkL44MhaLlxR3ed-8" target="X9fPhNkL44MhaLlxR3ed-14">
          <mxGeometry relative="1" as="geometry" />
        </mxCell>
        <mxCell id="X9fPhNkL44MhaLlxR3ed-44" value="&lt;div&gt;2&lt;/div&gt;&lt;div&gt;&lt;br&gt;&lt;/div&gt;" style="edgeStyle=orthogonalEdgeStyle;rounded=0;orthogonalLoop=1;jettySize=auto;html=1;entryX=0.5;entryY=0;entryDx=0;entryDy=0;" edge="1" parent="1" source="X9fPhNkL44MhaLlxR3ed-8" target="X9fPhNkL44MhaLlxR3ed-17">
          <mxGeometry x="-0.0525" y="-10" relative="1" as="geometry">
            <mxPoint x="200" y="460" as="targetPoint" />
            <mxPoint as="offset" />
          </mxGeometry>
        </mxCell>
        <mxCell id="X9fPhNkL44MhaLlxR3ed-74" value="&lt;div&gt;A,B,C&lt;/div&gt;&lt;div&gt;&lt;br&gt;&lt;/div&gt;" style="edgeStyle=orthogonalEdgeStyle;rounded=0;orthogonalLoop=1;jettySize=auto;html=1;endArrow=async;endFill=1;" edge="1" parent="1" source="X9fPhNkL44MhaLlxR3ed-8">
          <mxGeometry x="-0.1156" y="10" relative="1" as="geometry">
            <mxPoint x="629.9999999999998" y="410.0000000000001" as="targetPoint" />
            <mxPoint as="offset" />
          </mxGeometry>
        </mxCell>
        <mxCell id="X9fPhNkL44MhaLlxR3ed-8" value="&lt;div&gt;INPUT_HR_HIGH&lt;/div&gt;" style="dashed=0;html=1;rounded=1;strokeColor=#DFE1E6;fontSize=12;align=center;fontStyle=1;strokeWidth=2;fontColor=#42526E" vertex="1" parent="1">
          <mxGeometry x="340" y="400" width="200" height="20" as="geometry" />
        </mxCell>
        <mxCell id="X9fPhNkL44MhaLlxR3ed-46" value="0,1,2,3,4,5,6,7,8,9" style="edgeStyle=orthogonalEdgeStyle;rounded=0;orthogonalLoop=1;jettySize=auto;html=1;" edge="1" parent="1" source="X9fPhNkL44MhaLlxR3ed-14" target="X9fPhNkL44MhaLlxR3ed-18">
          <mxGeometry relative="1" as="geometry" />
        </mxCell>
        <mxCell id="X9fPhNkL44MhaLlxR3ed-73" value="&lt;div&gt;A,B,C&lt;/div&gt;&lt;div&gt;&lt;br&gt;&lt;/div&gt;" style="edgeStyle=orthogonalEdgeStyle;rounded=0;orthogonalLoop=1;jettySize=auto;html=1;endArrow=async;endFill=1;" edge="1" parent="1" source="X9fPhNkL44MhaLlxR3ed-14">
          <mxGeometry x="-0.1156" y="10" relative="1" as="geometry">
            <mxPoint x="629.9999999999998" y="470.0000000000001" as="targetPoint" />
            <mxPoint as="offset" />
          </mxGeometry>
        </mxCell>
        <mxCell id="X9fPhNkL44MhaLlxR3ed-14" value="&lt;div&gt;INPUT_HR_LOW&lt;/div&gt;" style="dashed=0;html=1;rounded=1;strokeColor=#DFE1E6;fontSize=12;align=center;fontStyle=1;strokeWidth=2;fontColor=#42526E" vertex="1" parent="1">
          <mxGeometry x="340" y="460" width="200" height="20" as="geometry" />
        </mxCell>
        <mxCell id="X9fPhNkL44MhaLlxR3ed-45" value="&lt;div&gt;0,1,2,3&lt;/div&gt;&lt;div&gt;&lt;br&gt;&lt;/div&gt;" style="edgeStyle=orthogonalEdgeStyle;rounded=0;orthogonalLoop=1;jettySize=auto;html=1;entryX=0;entryY=0.5;entryDx=0;entryDy=0;exitX=0.5;exitY=1;exitDx=0;exitDy=0;" edge="1" parent="1" source="X9fPhNkL44MhaLlxR3ed-17" target="X9fPhNkL44MhaLlxR3ed-18">
          <mxGeometry x="0.158" y="10" relative="1" as="geometry">
            <mxPoint x="200" y="480" as="sourcePoint" />
            <Array as="points">
              <mxPoint x="200" y="530" />
            </Array>
            <mxPoint as="offset" />
          </mxGeometry>
        </mxCell>
        <mxCell id="X9fPhNkL44MhaLlxR3ed-17" value="&lt;div&gt;INPUT_HR_LOW_RESTRICTED&lt;/div&gt;" style="dashed=0;html=1;rounded=1;strokeColor=#DFE1E6;fontSize=12;align=center;fontStyle=1;strokeWidth=2;fontColor=#42526E" vertex="1" parent="1">
          <mxGeometry x="100" y="460" width="200" height="20" as="geometry" />
        </mxCell>
        <mxCell id="X9fPhNkL44MhaLlxR3ed-47" value="0,1,2,3,4,5" style="edgeStyle=orthogonalEdgeStyle;rounded=0;orthogonalLoop=1;jettySize=auto;html=1;" edge="1" parent="1" source="X9fPhNkL44MhaLlxR3ed-18" target="X9fPhNkL44MhaLlxR3ed-19">
          <mxGeometry relative="1" as="geometry" />
        </mxCell>
        <mxCell id="X9fPhNkL44MhaLlxR3ed-72" value="&lt;div&gt;A,B,C&lt;/div&gt;&lt;div&gt;&lt;br&gt;&lt;/div&gt;" style="edgeStyle=orthogonalEdgeStyle;rounded=0;orthogonalLoop=1;jettySize=auto;html=1;endArrow=async;endFill=1;" edge="1" parent="1" source="X9fPhNkL44MhaLlxR3ed-18">
          <mxGeometry x="-0.1156" y="10" relative="1" as="geometry">
            <mxPoint x="629.9999999999998" y="530" as="targetPoint" />
            <mxPoint as="offset" />
          </mxGeometry>
        </mxCell>
        <mxCell id="X9fPhNkL44MhaLlxR3ed-18" value="&lt;div&gt;INPUT_MIN_HIGH&lt;/div&gt;" style="dashed=0;html=1;rounded=1;strokeColor=#DFE1E6;fontSize=12;align=center;fontStyle=1;strokeWidth=2;fontColor=#42526E" vertex="1" parent="1">
          <mxGeometry x="340" y="520" width="200" height="20" as="geometry" />
        </mxCell>
        <mxCell id="X9fPhNkL44MhaLlxR3ed-48" value="0,1,2,3,4,5,6,7,8,9" style="edgeStyle=orthogonalEdgeStyle;rounded=0;orthogonalLoop=1;jettySize=auto;html=1;" edge="1" parent="1" source="X9fPhNkL44MhaLlxR3ed-19" target="X9fPhNkL44MhaLlxR3ed-22">
          <mxGeometry relative="1" as="geometry" />
        </mxCell>
        <mxCell id="X9fPhNkL44MhaLlxR3ed-71" value="&lt;div&gt;A,B,C&lt;/div&gt;&lt;div&gt;&lt;br&gt;&lt;/div&gt;" style="edgeStyle=orthogonalEdgeStyle;rounded=0;orthogonalLoop=1;jettySize=auto;html=1;endArrow=async;endFill=1;" edge="1" parent="1" source="X9fPhNkL44MhaLlxR3ed-19">
          <mxGeometry x="-0.1156" y="10" relative="1" as="geometry">
            <mxPoint x="630" y="590" as="targetPoint" />
            <mxPoint as="offset" />
          </mxGeometry>
        </mxCell>
        <mxCell id="X9fPhNkL44MhaLlxR3ed-19" value="&lt;div&gt;INPUT_MIN_LOW&lt;/div&gt;" style="dashed=0;html=1;rounded=1;strokeColor=#DFE1E6;fontSize=12;align=center;fontStyle=1;strokeWidth=2;fontColor=#42526E" vertex="1" parent="1">
          <mxGeometry x="340" y="580" width="200" height="20" as="geometry" />
        </mxCell>
        <mxCell id="X9fPhNkL44MhaLlxR3ed-56" value="ANY" style="edgeStyle=orthogonalEdgeStyle;rounded=0;orthogonalLoop=1;jettySize=auto;html=1;exitX=0;exitY=0.5;exitDx=0;exitDy=0;entryX=0;entryY=0.25;entryDx=0;entryDy=0;" edge="1" parent="1" source="X9fPhNkL44MhaLlxR3ed-21" target="X9fPhNkL44MhaLlxR3ed-25">
          <mxGeometry x="-0.0774" y="-10" relative="1" as="geometry">
            <Array as="points">
              <mxPoint x="320" y="180" />
              <mxPoint x="320" y="250" />
            </Array>
            <mxPoint as="offset" />
          </mxGeometry>
        </mxCell>
        <mxCell id="X9fPhNkL44MhaLlxR3ed-21" value="DISPLAY_ALARM_IS_ENABLED" style="dashed=0;html=1;rounded=1;strokeColor=#DFE1E6;fontSize=12;align=center;fontStyle=1;strokeWidth=2;fontColor=#42526E" vertex="1" parent="1">
          <mxGeometry x="340" y="170" width="200" height="20" as="geometry" />
        </mxCell>
        <mxCell id="X9fPhNkL44MhaLlxR3ed-69" style="edgeStyle=orthogonalEdgeStyle;rounded=0;orthogonalLoop=1;jettySize=auto;html=1;entryX=1;entryY=0.75;entryDx=0;entryDy=0;" edge="1" parent="1" target="X9fPhNkL44MhaLlxR3ed-25">
          <mxGeometry relative="1" as="geometry">
            <mxPoint x="660" y="600" as="targetPoint" />
            <mxPoint x="630" y="650" as="sourcePoint" />
            <Array as="points">
              <mxPoint x="630" y="290" />
            </Array>
          </mxGeometry>
        </mxCell>
        <mxCell id="X9fPhNkL44MhaLlxR3ed-70" value="&lt;div&gt;ANY&lt;/div&gt;&lt;div&gt;&lt;br&gt;&lt;/div&gt;" style="edgeStyle=orthogonalEdgeStyle;rounded=0;orthogonalLoop=1;jettySize=auto;html=1;endArrow=async;endFill=1;" edge="1" parent="1" source="X9fPhNkL44MhaLlxR3ed-22">
          <mxGeometry x="-0.1156" y="10" relative="1" as="geometry">
            <mxPoint x="629.9999999999998" y="650" as="targetPoint" />
            <mxPoint as="offset" />
          </mxGeometry>
        </mxCell>
        <mxCell id="X9fPhNkL44MhaLlxR3ed-22" value="DISPLAY_DONE" style="dashed=0;html=1;rounded=1;strokeColor=#DFE1E6;fontSize=12;align=center;fontStyle=1;strokeWidth=2;fontColor=#42526E" vertex="1" parent="1">
          <mxGeometry x="340" y="640" width="200" height="20" as="geometry" />
        </mxCell>
        <mxCell id="X9fPhNkL44MhaLlxR3ed-36" value="A or C" style="edgeStyle=orthogonalEdgeStyle;rounded=0;orthogonalLoop=1;jettySize=auto;html=1;" edge="1" parent="1" source="X9fPhNkL44MhaLlxR3ed-25" target="X9fPhNkL44MhaLlxR3ed-8">
          <mxGeometry relative="1" as="geometry" />
        </mxCell>
        <mxCell id="X9fPhNkL44MhaLlxR3ed-58" value="Mute" style="edgeStyle=orthogonalEdgeStyle;rounded=0;orthogonalLoop=1;jettySize=auto;html=1;exitX=1;exitY=0.5;exitDx=0;exitDy=0;entryX=1;entryY=0.5;entryDx=0;entryDy=0;" edge="1" parent="1" source="X9fPhNkL44MhaLlxR3ed-25" target="X9fPhNkL44MhaLlxR3ed-55">
          <mxGeometry x="0.0372" y="-20" relative="1" as="geometry">
            <Array as="points">
              <mxPoint x="610" y="270" />
              <mxPoint x="610" y="140" />
            </Array>
            <mxPoint as="offset" />
          </mxGeometry>
        </mxCell>
        <mxCell id="X9fPhNkL44MhaLlxR3ed-59" value="Power" style="edgeStyle=orthogonalEdgeStyle;rounded=0;orthogonalLoop=1;jettySize=auto;html=1;exitX=1;exitY=0.25;exitDx=0;exitDy=0;entryX=1;entryY=0.5;entryDx=0;entryDy=0;" edge="1" parent="1" source="X9fPhNkL44MhaLlxR3ed-25" target="X9fPhNkL44MhaLlxR3ed-21">
          <mxGeometry x="0.0914" y="10" relative="1" as="geometry">
            <mxPoint as="offset" />
          </mxGeometry>
        </mxCell>
        <mxCell id="X9fPhNkL44MhaLlxR3ed-25" value="SHOW_TIME" style="dashed=0;html=1;rounded=1;strokeColor=#DFE1E6;fontSize=12;align=center;fontStyle=1;strokeWidth=2;fontColor=#42526E" vertex="1" parent="1">
          <mxGeometry x="340" y="230" width="200" height="80" as="geometry" />
        </mxCell>
        <mxCell id="X9fPhNkL44MhaLlxR3ed-57" value="ANY" style="edgeStyle=orthogonalEdgeStyle;rounded=0;orthogonalLoop=1;jettySize=auto;html=1;exitX=0;exitY=0.5;exitDx=0;exitDy=0;" edge="1" parent="1" source="X9fPhNkL44MhaLlxR3ed-55">
          <mxGeometry x="-0.0402" y="-10" relative="1" as="geometry">
            <mxPoint x="340" y="270" as="targetPoint" />
            <Array as="points">
              <mxPoint x="290" y="140" />
              <mxPoint x="290" y="270" />
              <mxPoint x="340" y="270" />
            </Array>
            <mxPoint as="offset" />
          </mxGeometry>
        </mxCell>
        <mxCell id="X9fPhNkL44MhaLlxR3ed-55" value="DISPLAY_QUIET" style="dashed=0;html=1;rounded=1;strokeColor=#DFE1E6;fontSize=12;align=center;fontStyle=1;strokeWidth=2;fontColor=#42526E" vertex="1" parent="1">
          <mxGeometry x="340" y="130" width="200" height="20" as="geometry" />
        </mxCell>
        <mxCell id="X9fPhNkL44MhaLlxR3ed-75" value="A,B,C" style="edgeStyle=orthogonalEdgeStyle;rounded=0;orthogonalLoop=1;jettySize=auto;html=1;exitX=0.25;exitY=0;exitDx=0;exitDy=0;entryX=0;entryY=0.75;entryDx=0;entryDy=0;" edge="1" parent="1" source="X9fPhNkL44MhaLlxR3ed-17" target="X9fPhNkL44MhaLlxR3ed-25">
          <mxGeometry x="-0.5555" y="20" relative="1" as="geometry">
            <Array as="points">
              <mxPoint x="150" y="290" />
            </Array>
            <mxPoint as="offset" />
          </mxGeometry>
        </mxCell>
      </root>
    </mxGraphModel>
  </diagram>
</mxfile>
